<svg xmlns="http://www.w3.org/2000/svg" viewBox="0 0 16 16" width="512" height="512" shape-rendering="crispEdges">
  <title>Biscuit logo</title>
  <rect x="2" y="1" width="1" height="1" fill="#4A2E19"/>
  <rect x="12" y="1" width="1" height="1" fill="#4A2E19"/>
  <rect x="2" y="2" width="2" height="1" fill="#4A2E19"/>
  <rect x="11" y="2" width="2" height="1" fill="#4A2E19"/>
  <rect x="2" y="3" width="1" height="1" fill="#4A2E19"/>
  <rect x="3" y="3" width="1" height="1" fill="#C98A4B"/>
  <rect x="4" y="3" width="1" height="1" fill="#4A2E19"/>
  <rect x="10" y="3" width="1" height="1" fill="#4A2E19"/>
  <rect x="11" y="3" width="1" height="1" fill="#C98A4B"/>
  <rect x="12" y="3" width="1" height="1" fill="#4A2E19"/>
  <rect x="3" y="4" width="1" height="1" fill="#4A2E19"/>
  <rect x="4" y="4" width="7" height="1" fill="#C98A4B"/>
  <rect x="11" y="4" width="1" height="1" fill="#4A2E19"/>
  <rect x="3" y="5" width="1" height="1" fill="#4A2E19"/>
  <rect x="4" y="5" width="1" height="1" fill="#C98A4B"/>
  <rect x="5" y="5" width="1" height="1" fill="#1C1C1E"/>
  <rect x="6" y="5" width="3" height="1" fill="#C98A4B"/>
  <rect x="9" y="5" width="1" height="1" fill="#1C1C1E"/>
  <rect x="10" y="5" width="1" height="1" fill="#C98A4B"/>
  <rect x="11" y="5" width="1" height="1" fill="#4A2E19"/>
  <rect x="3" y="6" width="1" height="1" fill="#4A2E19"/>
  <rect x="4" y="6" width="7" height="1" fill="#C98A4B"/>
  <rect x="11" y="6" width="1" height="1" fill="#4A2E19"/>
  <rect x="3" y="7" width="1" height="1" fill="#4A2E19"/>
  <rect x="4" y="7" width="1" height="1" fill="#C98A4B"/>
  <rect x="5" y="7" width="2" height="1" fill="#F2E4D0"/>
  <rect x="7" y="7" width="1" height="1" fill="#1C1C1E"/>
  <rect x="8" y="7" width="2" height="1" fill="#F2E4D0"/>
  <rect x="10" y="7" width="1" height="1" fill="#C98A4B"/>
  <rect x="11" y="7" width="1" height="1" fill="#4A2E19"/>
  <rect x="3" y="8" width="1" height="1" fill="#4A2E19"/>
  <rect x="4" y="8" width="2" height="1" fill="#C98A4B"/>
  <rect x="6" y="8" width="3" height="1" fill="#F2E4D0"/>
  <rect x="9" y="8" width="2" height="1" fill="#C98A4B"/>
  <rect x="11" y="8" width="1" height="1" fill="#4A2E19"/>
  <rect x="4" y="9" width="1" height="1" fill="#4A2E19"/>
  <rect x="5" y="9" width="5" height="1" fill="#C98A4B"/>
  <rect x="10" y="9" width="1" height="1" fill="#4A2E19"/>
  <rect x="3" y="10" width="1" height="1" fill="#4A2E19"/>
  <rect x="4" y="10" width="7" height="1" fill="#C98A4B"/>
  <rect x="11" y="10" width="1" height="1" fill="#4A2E19"/>
  <rect x="2" y="11" width="1" height="1" fill="#4A2E19"/>
  <rect x="3" y="11" width="9" height="1" fill="#C98A4B"/>
  <rect x="12" y="11" width="1" height="1" fill="#4A2E19"/>
  <rect x="2" y="12" width="1" height="1" fill="#4A2E19"/>
  <rect x="3" y="12" width="1" height="1" fill="#C98A4B"/>
  <rect x="4" y="12" width="2" height="1" fill="#F2E4D0"/>
  <rect x="6" y="12" width="3" height="1" fill="#C98A4B"/>
  <rect x="9" y="12" width="2" height="1" fill="#F2E4D0"/>
  <rect x="11" y="12" width="1" height="1" fill="#C98A4B"/>
  <rect x="12" y="12" width="1" height="1" fill="#4A2E19"/>
  <rect x="14" y="12" width="1" height="1" fill="#4A2E19"/>
  <rect x="2" y="13" width="1" height="1" fill="#4A2E19"/>
  <rect x="3" y="13" width="1" height="1" fill="#C98A4B"/>
  <rect x="4" y="13" width="2" height="1" fill="#F2E4D0"/>
  <rect x="6" y="13" width="3" height="1" fill="#C98A4B"/>
  <rect x="9" y="13" width="2" height="1" fill="#F2E4D0"/>
  <rect x="11" y="13" width="1" height="1" fill="#C98A4B"/>
  <rect x="12" y="13" width="2" height="1" fill="#4A2E19"/>
  <rect x="2" y="14" width="11" height="1" fill="#4A2E19"/>
</svg>
